<svg width="106" height="26" viewBox="0 0 106 26" fill="none" xmlns="http://www.w3.org/2000/svg">
<g clip-path="url(#clip0_2941_3567)">
<path d="M14.7205 8.14478C15.1109 8.64808 15.4413 9.19489 15.7052 9.7742L8.22004 15.2771L5.0918 13.3214V10.9686L8.22004 12.9243L14.7205 8.14478Z" fill="white"/>
<path d="M1.89838 13.1553C1.89838 13.0497 1.90097 12.9448 1.90613 12.8406L0.0103249 12.7479C0.00387218 12.8831 2.29099e-06 13.0195 2.29099e-06 13.1572C-0.000804321 14.2331 0.211391 15.2985 0.62442 16.2924C1.03745 17.2864 1.64317 18.1891 2.40686 18.949L3.7516 17.6085C3.16374 17.0246 2.69739 16.3306 2.37936 15.5664C2.06132 14.8021 1.89786 13.9827 1.89838 13.1553Z" fill="white"/>
<path d="M8.21693 6.8544C8.32274 6.8544 8.42788 6.85826 8.53242 6.86341L8.62728 4.97206C8.49138 4.96563 8.35456 4.96241 8.21693 4.96241C7.1376 4.9611 6.06872 5.17241 5.07156 5.58423C4.0744 5.99605 3.16862 6.60025 2.40625 7.36215L3.75099 8.70328C4.3365 8.11681 5.03248 7.65155 5.7989 7.33425C6.56533 7.01696 7.38705 6.85388 8.21693 6.8544Z" fill="white"/>
<path d="M8.21766 19.4576C8.11185 19.4576 8.00665 19.4576 7.9015 19.4492L7.80664 21.3399C7.943 21.3468 8.08002 21.3502 8.21766 21.3502C9.29652 21.3513 10.3649 21.1399 11.3615 20.728C12.3582 20.316 13.2633 19.7117 14.0251 18.9498L12.683 17.6094C12.0974 18.1955 11.4014 18.6605 10.6352 18.9777C9.8689 19.2949 9.04732 19.458 8.21766 19.4576Z" fill="white"/>
<path d="M11.78 7.95357L13.378 6.7789C11.9174 5.59938 10.0942 4.9573 8.21484 4.96058V6.85356C9.48748 6.85199 10.7306 7.23555 11.78 7.95357Z" fill="white"/>
<path d="M16.4345 13.1554C16.4355 12.6631 16.3923 12.1716 16.3054 11.6869L14.5367 12.9868C14.5367 13.0428 14.5367 13.0988 14.5367 13.1554C14.5372 14.036 14.3521 14.9068 13.9935 15.7114C13.6349 16.516 13.1108 17.2365 12.4551 17.8262L13.7308 19.2324C14.5832 18.4649 15.2644 17.5273 15.7302 16.4805C16.196 15.4336 16.4359 14.3007 16.4345 13.1554Z" fill="white"/>
<path d="M8.21634 19.4575C7.33336 19.4578 6.46015 19.2732 5.65325 18.9156C4.84638 18.5579 4.1238 18.0353 3.53231 17.3815L2.12305 18.6531C2.8925 19.5034 3.83256 20.1828 4.88227 20.6475C5.93197 21.1121 7.06787 21.3515 8.21634 21.3501V19.4575Z" fill="white"/>
<path d="M3.98003 8.48449L2.70498 7.07837C1.8523 7.8457 1.17086 8.78321 0.704867 9.8301C0.238876 10.877 -0.00127046 12.0098 5.05449e-06 13.1553H1.89839C1.898 12.2748 2.0831 11.4039 2.4417 10.5993C2.8003 9.79473 3.32439 9.07421 3.98003 8.48449Z" fill="white"/>
<path d="M47.42 9.64693L49.7712 7.93896H41.9023V18.2024H49.7712V16.4944H44.1477V13.8654H48.9448V12.1574H44.1477V9.64693H47.42Z" fill="white"/>
<path d="M36.6067 11.9374H33.8748V9.64638H38.2348L40.5846 7.93323H31.6309V18.1966H36.3178C38.9455 18.1966 40.4535 17.0223 40.4535 14.9743C40.4535 13.0151 39.0876 11.9374 36.6067 11.9374ZM36.2167 16.4881H33.8748V13.6443H36.2167C37.6379 13.6443 38.3043 14.1208 38.3043 15.0662C38.3043 16.0115 37.5953 16.4881 36.2167 16.4881Z" fill="white"/>
<path d="M55.5548 7.93762H51.2715V18.201H53.5165V15.2935H55.5548C58.2876 15.2935 59.9781 13.8757 59.9781 11.6101C59.9781 9.34461 58.2876 7.93762 55.5548 7.93762ZM55.5074 13.5843H53.5165V9.64689H55.5074C56.9448 9.64689 57.7382 10.3465 57.7382 11.6164C57.7382 12.8862 56.9448 13.5843 55.5074 13.5843Z" fill="white"/>
<path d="M28.262 15.7788C27.6821 16.0885 27.0323 16.2488 26.3728 16.245C24.399 16.245 22.9672 14.8556 22.9672 12.9424C22.9672 11.0291 24.399 9.63662 26.3728 9.63662C27.0846 9.6247 27.7817 9.83752 28.3621 10.244L29.9325 9.10364L29.8263 9.02923C28.9102 8.23507 27.6862 7.81445 26.2851 7.81445C24.7654 7.81445 23.3875 8.31858 22.4036 9.23574C21.9062 9.70798 21.5128 10.2762 21.2478 10.9051C20.983 11.5339 20.8522 12.2098 20.864 12.8907C20.8535 13.5785 20.9836 14.2613 21.2465 14.8984C21.5095 15.5355 21.8998 16.1138 22.3944 16.5988C23.3829 17.5524 24.7578 18.0778 26.2666 18.0778C27.8432 18.0778 29.2212 17.5357 30.1543 16.5487L28.7486 15.5162L28.262 15.7788Z" fill="white"/>
<path d="M68.8806 11.9374H66.1498V9.64638H72.0182V7.93323H63.9043V18.1966H68.5853C71.2127 18.1966 72.7209 17.0223 72.7209 14.9743C72.727 13.0151 71.3613 11.9374 68.8806 11.9374ZM68.4905 16.4881H66.1498V13.6443H68.4905C69.9117 13.6443 70.5777 14.1208 70.5777 15.0662C70.5777 16.0115 69.875 16.4881 68.4905 16.4881Z" fill="white"/>
<path d="M98.2448 18.182H95.9688V7.91858H98.2448V12.2293H99.4837L102.829 7.91858H105.409L101.44 12.801L106.048 18.182H103.028L99.6415 14.1455H98.2448V18.182Z" fill="white"/>
<path d="M80.9908 16.2314H76.1759L75.3597 18.2244H72.9375L77.4535 7.96106H79.8752L84.3178 18.2244H81.807L80.9908 16.2314ZM80.2367 14.3718L78.5976 10.3857L76.9494 14.3718H80.2367Z" fill="white"/>
<path d="M87.38 7.96106V12.2469H92.09V7.96106H94.4369V18.2244H92.09V14.1803H87.38V18.2244H85.0332V7.96106H87.38Z" fill="white"/>
</g>
<defs>
<clipPath id="clip0_2941_3567">
<rect width="106" height="26" fill="white"/>
</clipPath>
</defs>
</svg>
