<svg width="21" height="22" viewBox="0 0 21 22" fill="none" xmlns="http://www.w3.org/2000/svg">
<path d="M17.3534 15.0002C16.9044 15.0019 16.4603 15.0943 16.0479 15.2719C15.6355 15.4494 15.2632 15.7085 14.9534 16.0335L6.82671 11.9668C7.02662 11.3607 7.02662 10.7063 6.82671 10.1002L14.9667 5.96016C15.5498 6.57458 16.3404 6.95027 17.185 7.0142C18.0297 7.07813 18.8679 6.82574 19.5368 6.30609C20.2057 5.78644 20.6574 5.03664 20.8043 4.20244C20.9512 3.36825 20.7826 2.50924 20.3314 1.79238C19.8802 1.07553 19.1786 0.552043 18.363 0.323672C17.5473 0.0952998 16.6759 0.178359 15.918 0.556704C15.1602 0.935049 14.5701 1.58165 14.2625 2.37083C13.9548 3.16001 13.9516 4.03539 14.2534 4.82683L6.19338 8.92683C5.75808 8.39446 5.16878 8.00975 4.50626 7.82545C3.84373 7.64114 3.14042 7.66625 2.49273 7.89734C1.84505 8.12843 1.28468 8.55418 0.888456 9.11624C0.492231 9.6783 0.279541 10.3491 0.279541 11.0368C0.279541 11.7245 0.492231 12.3954 0.888456 12.9574C1.28468 13.5195 1.84505 13.9452 2.49273 14.1763C3.14042 14.4074 3.84373 14.4325 4.50626 14.2482C5.16878 14.0639 5.75808 13.6792 6.19338 13.1468L14.2334 17.1935C14.0975 17.5583 14.0276 17.9443 14.0267 18.3335C14.0267 18.9928 14.2222 19.6372 14.5885 20.1854C14.9548 20.7336 15.4753 21.1608 16.0844 21.4131C16.6935 21.6654 17.3637 21.7314 18.0103 21.6028C18.6569 21.4742 19.2509 21.1567 19.7171 20.6905C20.1832 20.2243 20.5007 19.6304 20.6293 18.9838C20.7579 18.3372 20.6919 17.667 20.4396 17.0579C20.1874 16.4488 19.7601 15.9282 19.2119 15.5619C18.6638 15.1957 18.0193 15.0002 17.36 15.0002H17.3534Z" fill="white"/>
</svg>
